PathFileType	4	(X/Y/Z)	/Users/itak/Documents/Research/Walk-IL/dataset/trc/00030_00004.trc
DataRate	CameraRate	NumFrames	NumMarkers	Units	OrigDataRate	OrigDataStartFrame	OrigNumFrames
100.000000	100.000000	4	53	mm	100.000000	477	764
Frame#	Time	RPSI			LPSI			L3			STRN			T10			C7			CLAV			RBAK			LBAK			LSHO			LUPA			LAEL			LAOL			LWTS			LWPS			LFRA			LIFD			LHPS			LHTS			RSHO			RUPA			RAEL			RAOL			RWTS			RWPS			RFRA			RIFD			RHTS			RHPS			RBHD			LFHD			RFHD			LBHD			LHIP			RHIP			RASI			LASI			LKNE			LTHI			LANK			LTIP			LTOE			LMT1			LMT5			LHEE			RKNE			RTHI			RANK			RTIP			RTOE			RMT1			RMT5			RHEE			
		X1	Y1	Z1	X2	Y2	Z2	X3	Y3	Z3	X4	Y4	Z4	X5	Y5	Z5	X6	Y6	Z6	X7	Y7	Z7	X8	Y8	Z8	X9	Y9	Z9	X10	Y10	Z10	X11	Y11	Z11	X12	Y12	Z12	X13	Y13	Z13	X14	Y14	Z14	X15	Y15	Z15	X16	Y16	Z16	X17	Y17	Z17	X18	Y18	Z18	X19	Y19	Z19	X20	Y20	Z20	X21	Y21	Z21	X22	Y22	Z22	X23	Y23	Z23	X24	Y24	Z24	X25	Y25	Z25	X26	Y26	Z26	X27	Y27	Z27	X28	Y28	Z28	X29	Y29	Z29	X30	Y30	Z30	X31	Y31	Z31	X32	Y32	Z32	X33	Y33	Z33	X34	Y34	Z34	X35	Y35	Z35	X36	Y36	Z36	X37	Y37	Z37	X38	Y38	Z38	X39	Y39	Z39	X40	Y40	Z40	X41	Y41	Z41	X42	Y42	Z42	X43	Y43	Z43	X44	Y44	Z44	X45	Y45	Z45	X46	Y46	Z46	X47	Y47	Z47	X48	Y48	Z48	X49	Y49	Z49	X50	Y50	Z50	X51	Y51	Z51	X52	Y52	Z52	X53	Y53	Z53	

478	4.77	905.5360717773438	1031.470458984375	-180.7585754394531	1053.056396484375	1035.591796875	-252.4215087890625	977.410400390625	1100.412963867188	-226.5768585205078	1065.083129882812	1285.953002929688	-15.72885513305664	956.5401611328125	1245.31005859375	-240.6900329589844	979.7314453125	1511.594116210938	-186.4187622070312	1046.289306640625	1412.145141601562	-50.75101089477539	886.3013305664062	1374.08203125	-209.5294952392578	1058.246948242188	1477.97265625	-249.5883941650391	1169.42919921875	1481.840454101562	-192.4912872314453	1222.122680664062	1368.526000976562	-273.76220703125	1240.590454101562	1158.000854492188	-326.2425842285156	1135.1611328125	1151.37841796875	-334.55908203125	1216.742431640625	888.5405883789062	-275.7197875976562	1225.73583984375	892.9594116210938	-364.6978149414062	1247.857055664062	1042.602905273438	-341.2086181640625	1199.0244140625	699.9407348632812	-287.0528564453125	1233.197631835938	798.6214599609375	-354.4530334472656	1231.147216796875	793.509765625	-283.5271301269531	857.921630859375	1484.07373046875	-44.3716926574707	788.0317993164062	1415.134521484375	-30.58851051330566	732.3248291015625	1149.881958007812	-56.79452514648438	817.3681030273438	1120.242553710938	-101.248046875	885.4231567382812	960.3255004882812	104.3103256225586	803.9885864257812	917.3032836914062	98.69306182861328	737.2754516601562	1074.53271484375	-18.77340698242188	959.9695434570312	803.2183837890625	171.6494140625	921.6494750976562	877.1336669921875	173.6609802246094	854.4404907226562	844.8195190429688	163.3924407958984	1084.744750976562	1695.1845703125	-90.41117095947266	939.3286743164062	1656.662841796875	69.18317413330078	1036.961303710938	1665.793334960938	82.41822052001953	941.5029907226562	1679.109985351562	-104.258171081543	1206.246459960938	945.0994873046875	-204.8934936523438	870.7728881835938	912.1741333007812	-37.08816909790039	976.1716918945312	955.6803588867188	26.43765258789062	1185.83935546875	994.9127197265625	-77.56815338134766	1258.02197265625	539.611328125	9.749216079711914	1265.643188476562	661.0733642578125	-77.71521759033203	1330.514282226562	50.30816650390625	-63.70931243896484	1305.555541992188	302.5138549804688	-55.13642501831055	1316.2236328125	68.29279327392578	159.4759521484375	1286.223754882812	64.10811614990234	106.3705596923828	1377.552612304688	62.84345626831055	50.50859069824219	1265.391967773438	42.82035064697266	-119.0253219604492	976.675048828125	484.71240234375	-89.43247222900391	909.04931640625	745.1332397460938	-29.77130889892578	963.9849853515625	35.26610565185547	-299.5055847167969	978.5975341796875	362.0375671386719	-134.3645324707031	1126.247924804688	29.75649642944336	-128.0104827880859	1117.5087890625	34.23661041259766	-196.2188720703125	1027.171997070312	32.83337783813477	-162.8882293701172	972.53564453125	39.8035888671875	-368.7575988769531	
479	4.78	910.3514404296875	1030.4541015625	-175.3717041015625	1059.021484375	1034.336669921875	-244.8180389404297	983.0682983398438	1099.321655273438	-220.0393524169922	1067.8779296875	1284.751586914062	-7.928633213043213	962.2725830078125	1244.236450195312	-234.4696655273438	984.9240112304688	1510.498657226562	-179.7017364501953	1049.557739257812	1410.956298828125	-43.22919082641602	891.6806030273438	1373.071044921875	-204.1541900634766	1064.250244140625	1476.866333007812	-241.9364624023438	1174.576904296875	1480.5576171875	-183.3039703369141	1228.39306640625	1367.2294921875	-263.7810668945312	1247.848999023438	1156.707763671875	-315.8175048828125	1142.654418945312	1149.886474609375	-325.7111511230469	1223.742553710938	887.4420776367188	-264.9296569824219	1234.048583984375	891.6046752929688	-353.8156127929688	1255.511474609375	1041.317260742188	-330.4566955566406	1206.397338867188	698.7891845703125	-276.0810546875	1241.560791015625	797.344970703125	-343.1561889648438	1238.514282226562	792.4034423828125	-272.224365234375	861.1676025390625	1482.96142578125	-39.3254280090332	790.9076538085938	1414.151245117188	-26.6165714263916	735.3560791015625	1148.915771484375	-53.93960189819336	821.052734375	1119.290283203125	-97.314208984375	886.8257446289062	959.8916625976562	109.3105239868164	805.4956665039062	916.7305297851562	102.9040451049805	740.01806640625	1073.552734375	-15.76534080505371	960.8565673828125	803.0564575195312	177.8934326171875	922.4193115234375	876.923583984375	179.2944183349609	855.3338623046875	844.4942016601562	168.3614044189453	1088.71923828125	1693.9345703125	-82.28056335449219	941.320068359375	1655.402954101562	75.47650909423828	1038.803344726562	1664.488159179688	90.00548553466797	945.6937255859375	1677.941650390625	-97.93180847167969	1211.484375	943.8989868164062	-195.2391204833984	873.4498901367188	911.4563598632812	-32.1367301940918	978.1431884765625	954.5517578125	32.91819381713867	1189.363403320312	993.7195434570312	-68.13336944580078	1260.621948242188	539.9339599609375	21.58477401733398	1269.358642578125	660.4213256835938	-66.65911865234375	1335.583374023438	49.31362915039062	-31.75861740112305	1309.903442382812	301.7149047851562	-33.61907577514648	1316.089721679688	74.7257080078125	190.365234375	1287.289794921875	68.84316253662109	136.7345123291016	1379.831298828125	65.71736145019531	83.15549468994141	1271.84228515625	39.79106903076172	-88.19745635986328	977.7494506835938	483.8699951171875	-85.95248413085938	910.945068359375	744.298583984375	-25.29005432128906	964.17822265625	35.84469604492188	-299.4596252441406	979.3911743164062	361.4044799804688	-131.8307952880859	1126.22265625	29.71284294128418	-127.9281997680664	1117.504272460938	34.28042602539062	-196.142333984375	1027.201904296875	32.81515884399414	-162.8274078369141	972.688720703125	40.79003143310547	-368.7111206054688	
480	4.79	915.1812744140625	1029.435180664062	-169.8229827880859	1064.957763671875	1033.029541015625	-237.0856781005859	988.7022094726562	1098.193969726562	-213.3809509277344	1070.716552734375	1283.512939453125	-0.05949864536523819	967.9952392578125	1243.105834960938	-228.1246795654297	990.07275390625	1509.364135742188	-172.8845520019531	1052.811645507812	1409.726684570312	-35.64520263671875	897.044189453125	1372.004028320312	-198.6557769775391	1070.179931640625	1475.71826171875	-234.1926574707031	1179.64697265625	1479.254760742188	-174.0643005371094	1234.559814453125	1365.929321289062	-253.7716979980469	1255.021606445312	1155.450927734375	-305.4103698730469	1150.076782226562	1148.361083984375	-316.7852478027344	1230.853393554688	886.3842163085938	-254.0324859619141	1242.342041015625	890.2597045898438	-342.8188171386719	1263.120727539062	1040.047729492188	-319.6822814941406	1214.141723632812	697.6668701171875	-264.7606201171875	1249.971313476562	796.0846557617188	-331.6734619140625	1246.017333984375	791.3893432617188	-260.7765502929688	864.42333984375	1481.771118164062	-34.17080307006836	793.8114013671875	1413.08447265625	-22.53851509094238	738.4027709960938	1147.901123046875	-51.08874893188477	824.7311401367188	1118.294067382812	-93.37963104248047	888.1087646484375	959.2070922851562	114.1717224121094	806.8688354492188	915.9317016601562	106.908203125	742.753173828125	1072.483154296875	-12.81209278106689	961.5331420898438	802.5611572265625	183.8739318847656	922.9784545898438	876.3849487304688	184.7037811279297	856.074462890625	843.8949584960938	173.0282592773438	1092.644897460938	1692.653930664062	-74.07906341552734	943.3082885742188	1654.101684570312	81.83736419677734	1040.632446289062	1663.168579101562	97.67512512207031	949.8516845703125	1676.7275390625	-91.52352142333984	1216.580200195312	942.5694580078125	-185.4509735107422	876.1456909179688	910.7582397460938	-27.03310203552246	980.1717529296875	953.4041748046875	39.50986862182617	1192.840576171875	992.4691162109375	-58.59963989257812	1263.147216796875	540.0972900390625	33.23553848266602	1273.060546875	659.5712890625	-55.77481842041016	1339.820190429688	48.9000358581543	-0.1706956326961517	1313.791870117188	301.082275390625	-12.41265201568604	1314.751831054688	81.82755279541016	220.3879547119141	1287.270629882812	74.20829772949219	166.2816925048828	1381.037231445312	69.22010803222656	115.2867889404297	1277.588012695312	37.30599975585938	-57.75760650634766	978.7967529296875	483.0803527832031	-82.45435333251953	912.8042602539062	743.4923706054688	-20.67316627502441	964.4220581054688	36.49970626831055	-299.4013671875	980.1488037109375	360.8286743164062	-129.2610473632812	1126.19970703125	29.65960693359375	-127.8388214111328	1117.507446289062	34.34915542602539	-196.0475158691406	1027.237548828125	32.79884719848633	-162.7590942382812	972.8746948242188	41.89091110229492	-368.66259765625	
481	4.8	920.0293579101562	1028.422485351562	-164.1069030761719	1070.863891601562	1031.685668945312	-229.2151641845703	994.3042602539062	1097.036987304688	-206.6106719970703	1073.591186523438	1282.243896484375	7.876010417938232	973.7178344726562	1241.927856445312	-221.654296875	995.18115234375	1508.200073242188	-165.9743347167969	1056.0517578125	1408.46533203125	-28.00003623962402	902.3984985351562	1370.89013671875	-193.0408477783203	1076.031494140625	1474.52685546875	-226.3450012207031	1184.647583007812	1477.944580078125	-164.7700653076172	1240.634033203125	1364.6328125	-243.7325592041016	1262.117553710938	1154.240600585938	-295.0235595703125	1157.428833007812	1146.819458007812	-307.7777404785156	1238.047241210938	885.375732421875	-243.0325622558594	1250.604858398438	888.9326171875	-331.7160949707031	1270.685302734375	1038.804321289062	-308.8857727050781	1222.197509765625	696.5836791992188	-253.1236572265625	1258.4091796875	794.8335571289062	-320.0152587890625	1253.6396484375	790.4747924804688	-249.1993560791016	867.6884765625	1480.512573242188	-28.91143989562988	796.7601928710938	1411.934936523438	-18.35195159912109	741.4724731445312	1146.84228515625	-48.23810958862305	828.3975219726562	1117.2568359375	-89.43507385253906	889.2715454101562	958.267578125	118.8944854736328	808.1209106445312	914.9112548828125	110.7090377807617	745.4811401367188	1071.33447265625	-9.903463363647461	962.0042114257812	801.7252807617188	189.5866394042969	923.3499145507812	875.5165405273438	189.8964080810547	856.673583984375	843.0184936523438	177.3883514404297	1096.51611328125	1691.358032226562	-65.80875396728516	945.28271484375	1652.76953125	88.26065826416016	1042.4521484375	1661.854858398438	105.4296646118164	953.9696655273438	1675.474853515625	-85.0322265625	1221.551025390625	941.119384765625	-175.4980621337891	878.8600463867188	910.0746459960938	-21.79400444030762	982.234130859375	952.2468872070312	46.21310043334961	1196.253295898438	991.1824951171875	-48.95947647094727	1265.561401367188	540.0960083007812	44.77566909790039	1276.7509765625	658.5263671875	-45.00051498413086	1343.339721679688	49.03059768676758	30.93276977539062	1317.228271484375	300.5947875976562	8.463263511657715	1312.079956054688	89.43114471435547	249.3863372802734	1286.110961914062	80.05390930175781	194.8281860351562	1381.15771484375	73.26724243164062	146.8157348632812	1282.819213867188	35.34236145019531	-27.88862609863281	979.8137817382812	482.3482055664062	-78.91271209716797	914.6405639648438	742.7198486328125	-15.91896533966064	964.68505859375	37.23950576782227	-299.3303527832031	980.8882446289062	360.3110961914062	-126.6352081298828	1126.18115234375	29.60042762756348	-127.7429275512695	1117.518798828125	34.45544815063477	-195.9333648681641	1027.274780273438	32.78413391113281	-162.6779632568359	973.0938720703125	43.10945129394531	-368.6039428710938	
